<svg width="20" height="20" viewBox="0 0 20 20" fill="none" xmlns="http://www.w3.org/2000/svg">
<g clip-path="url(#clip0)">
<path d="M19.0478 3.63051L19.0479 3.6305C18.8192 3.02554 18.4685 2.48596 18.0096 2.03765L18.0027 2.03089L18.0028 2.03083C17.5531 1.57419 17.0089 1.21967 16.413 0.995399L16.4088 0.993823L16.4088 0.993805C15.8272 0.768922 15.1544 0.606771 14.1409 0.562088L14.1393 0.562014C13.0806 0.511754 12.75 0.5 10.0371 0.5C7.32441 0.5 6.99296 0.511746 5.93723 0.55812L19.0478 3.63051ZM19.0478 3.63051L19.0496 3.63495M19.0478 3.63051L19.0496 3.63495M19.0496 3.63495C19.2739 4.21195 19.4362 4.88809 19.4809 5.90208C19.5272 6.95633 19.5313 7.2861 19.5313 10.002C19.5313 12.7146 19.5195 13.0461 19.4731 14.1018C19.4285 15.1152 19.2662 15.788 19.0414 16.37C18.5725 17.5825 17.6137 18.5413 16.401 19.0101L16.4001 19.0105C15.8233 19.2348 15.1471 19.3971 14.1332 19.4418C13.0774 19.4883 12.7461 19.4999 10.0333 19.4999C7.32046 19.4999 6.98897 19.4883 5.93341 19.4418C4.91983 19.3971 4.24719 19.235 3.66535 19.0101L3.6612 19.0085C3.06533 18.7842 2.52109 18.4297 2.07144 17.9731L2.07149 17.973L2.06598 17.9676C1.60897 17.5176 1.25463 16.977 1.0265 16.3734L1.02652 16.3734M19.0496 3.63495L1.02652 16.3734M3.66578 0.991226L3.66577 0.991205C3.06068 1.21983 2.52111 1.5706 2.07281 2.02944L2.06605 2.03635L2.06598 2.03629C1.60939 2.48589 1.25498 3.03014 1.03052 3.62614L1.02899 3.6302L1.02898 3.63019C0.804072 4.21204 0.641926 4.88468 0.597244 5.89811L0.59717 5.89979C0.546911 6.9585 0.535156 7.28906 0.535156 10.002C0.535156 12.7146 0.546902 13.0461 0.593276 14.1018L3.66578 0.991226ZM3.66578 0.991226L3.6702 0.989508M3.66578 0.991226L3.6702 0.989508M3.6702 0.989508C4.24712 0.765251 4.92327 0.602833 5.93715 0.558124L3.6702 0.989508ZM1.02652 16.3734L1.02479 16.369M1.02652 16.3734L1.02479 16.369M1.02479 16.369C0.800405 15.7919 0.637989 15.1158 0.59328 14.1019L1.02479 16.369ZM18.3018 16.0821C17.9149 17.0846 17.1197 17.8799 16.1171 18.2667C15.716 18.4226 15.1311 18.5983 14.1029 18.6436C13.0372 18.6911 12.7121 18.7027 10.0411 18.7027C7.37019 18.7027 7.04097 18.6911 5.9792 18.6436C5.97906 18.6436 5.97893 18.6436 5.97879 18.6436L6.00113 18.1441L18.3018 16.0821ZM18.3018 16.0821C18.4576 15.6812 18.6334 15.1002 18.6789 14.0679C18.7262 13.0021 18.738 12.6811 18.738 10.0097C18.738 7.3384 18.7262 7.01352 18.6789 5.94776C18.6335 4.9223 18.4587 4.33784 18.3031 3.93681C18.1177 3.437 17.8252 2.98667 17.4439 2.61284C17.0716 2.22855 16.6159 1.93623 16.1179 1.75168C15.7172 1.59616 15.1365 1.42125 14.1071 1.37586L18.3018 16.0821ZM2.64207 17.4067C3.0144 17.791 3.4701 18.0833 3.968 18.2679L1.4072 14.0719C1.45242 15.0972 1.62726 15.6818 1.78288 16.0828C1.96821 16.5825 2.2608 17.0328 2.64207 17.4067ZM1.3481 10.0097C1.3481 12.6808 1.35971 13.0061 1.40719 14.0717L5.98291 1.37586C4.95766 1.42123 4.37306 1.59605 3.97201 1.75167C3.47261 1.93669 3.02261 2.22895 2.64911 2.60973C2.25993 2.98283 1.96749 3.43892 1.78288 3.93679C1.62736 4.33754 1.45244 4.91819 1.4072 5.9476C1.35971 7.00955 1.3481 7.33852 1.3481 10.0097ZM10.0449 1.31676C7.37377 1.31676 7.04869 1.32852 5.983 1.37585L14.1068 1.37585C13.045 1.32852 12.7199 1.31676 10.0449 1.31676Z" fill="#AFB1B8" stroke="black"/>
<path d="M5.39938 10.0019C5.39938 7.44152 7.47684 5.3642 10.0371 5.3642C12.5975 5.3642 14.6748 7.44151 14.6748 10.0019C14.6748 12.5623 12.5975 14.6396 10.0371 14.6396C7.47684 14.6396 5.39938 12.5623 5.39938 10.0019ZM6.20439 10.0019C6.20439 12.1183 7.92087 13.8346 10.0371 13.8346C12.1535 13.8346 13.8698 12.1183 13.8698 10.0019C13.8698 7.88551 12.1535 6.16921 10.0371 6.16921C7.92087 6.16921 6.20439 7.8855 6.20439 10.0019Z" fill="#AFB1B8" stroke="black"/>
<path d="M16.0775 4.6611C16.0775 5.04727 15.7644 5.36052 15.378 5.36052C14.9917 5.36052 14.6785 5.04731 14.6785 4.6611C14.6785 4.27476 14.9917 3.96167 15.378 3.96167C15.7644 3.96167 16.0775 4.27481 16.0775 4.6611Z" fill="#AFB1B8" stroke="black"/>
</g>
<defs>
<clipPath id="clip0">
<rect width="20" height="20" fill="white"/>
</clipPath>
</defs>
</svg>
