<svg width="20" height="20" fill="none" xmlns="http://www.w3.org/2000/svg"><g clip-path="url(#clip0)" fill="#AFB1B8" stroke="#000"><path d="M19.048 3.63h0a4.38 4.38 0 00-1.038-1.592l-.007-.007h0a4.423 4.423 0 00-1.59-1.036l-.004-.001h0C15.827.769 15.154.607 14.14.562h-.002C13.081.512 12.75.5 10.037.5s-3.044.012-4.1.058l13.11 3.073zm0 0l.002.005m-.002-.004l.002.004m0 0c.224.577.386 1.253.43 2.267.047 1.054.051 1.384.051 4.1 0 2.713-.011 3.044-.058 4.1-.044 1.013-.207 1.686-.432 2.268a4.616 4.616 0 01-2.64 2.64h0c-.578.225-1.254.387-2.268.432-1.056.046-1.387.058-4.1.058-2.713 0-3.044-.012-4.1-.058-1.013-.045-1.686-.207-2.268-.432l-.004-.002a4.423 4.423 0 01-1.59-1.035h0l-.005-.005a4.432 4.432 0 01-1.04-1.595h0M19.05 3.635L1.027 16.373M3.666.991h0A4.38 4.38 0 002.073 2.03l-.007.007h0c-.457.45-.811.994-1.035 1.59l-.002.004h0C.804 4.212.642 4.885.597 5.898V5.9C.547 6.958.535 7.29.535 10.002c0 2.713.012 3.044.058 4.1L3.666.992zm0 0L3.67.99M3.666.99L3.67.99m0 0C4.247.765 4.923.603 5.937.558L3.67.99zM1.027 16.373l-.002-.004m.002.004l-.002-.004m0 0C.8 15.792.638 15.116.593 14.102l.432 2.267zm17.277-.287a3.817 3.817 0 01-2.185 2.185c-.401.156-.986.331-2.014.377-1.066.047-1.39.059-4.062.059-2.67 0-3-.012-4.062-.06 0 0 0 0 0 0L6 18.145l12.3-2.062zm0 0c.156-.4.331-.982.377-2.014.047-1.066.059-1.387.059-4.058 0-2.672-.012-2.996-.06-4.062-.044-1.026-.22-1.61-.375-2.011-.185-.5-.478-.95-.86-1.324a3.575 3.575 0 00-1.325-.861c-.4-.156-.981-.33-2.01-.376l4.194 14.706zm-15.66 1.325c.372.384.828.676 1.326.86l-2.56-4.195c.044 1.025.22 1.61.375 2.01.185.5.478.95.86 1.325zM1.348 10.01c0 2.67.012 2.996.06 4.062L5.982 1.376c-1.025.045-1.61.22-2.011.376-.5.185-.95.477-1.323.858a3.54 3.54 0 00-.866 1.327c-.156.4-.33.981-.376 2.01-.047 1.063-.059 1.392-.059 4.063zm8.697-8.693c-2.671 0-2.996.012-4.062.059h8.124c-1.062-.047-1.387-.06-4.062-.06z"/><path d="M5.4 10.002a4.639 4.639 0 114.638 4.638 4.639 4.639 0 01-4.639-4.638zm.804 0A3.833 3.833 0 1013.871 10a3.833 3.833 0 00-7.667 0zM16.078 4.661a.7.7 0 11-1.4 0 .7.7 0 011.4 0z"/></g><defs><clipPath id="clip0"><path fill="#fff" d="M0 0h20v20H0z"/></clipPath></defs></svg>