<svg width="20" height="20" fill="none" xmlns="http://www.w3.org/2000/svg"><g clip-path="url(#clip0)" fill="#AFB1B8" stroke="#000"><path d="M19.5 19.5h-.005v0h-3.137v-6c0-.754-.002-1.739-.317-2.534-.163-.412-.419-.798-.82-1.078-.403-.28-.908-.425-1.52-.425-.603 0-1.116.119-1.54.353a2.406 2.406 0 00-.948.965c-.418.758-.497 1.727-.497 2.606V19.5H7.574V7.147h2.978v1.82H11.412l.14-.266c.47-.893 1.658-1.89 3.48-1.89 1.975 0 3.032.64 3.634 1.598.636 1.01.834 2.472.834 4.255V19.5zM.83 7.147h3.147V19.5H.83V7.147zM.5 2.402a1.902 1.902 0 013.803 0c0 1.056-.858 1.924-1.901 1.924C1.358 4.326.5 3.457.5 2.402z"/></g><defs><clipPath id="clip0"><path fill="#fff" d="M0 0h20v20H0z"/></clipPath></defs></svg>