<svg width="20" height="20" fill="none" xmlns="http://www.w3.org/2000/svg"><g clip-path="url(#clip0)"><path d="M6.076 14.093a3.627 3.627 0 01-3.038-1.787 4.57 4.57 0 001.179-.152l-.032-.973a3.624 3.624 0 01-2.808-2.793c.403.13.83.206 1.266.214l1.705.033-1.418-.948a3.606 3.606 0 01-1.406-4.152 12.089 12.089 0 008.295 3.876l.658.032-.146-.642a3.723 3.723 0 01-.082-.825 3.599 3.599 0 016.228-2.461l.19.202.272-.054c.45-.09.886-.212 1.308-.366-.247.282-.54.525-.866.72l.32.925c.276-.035.549-.082.818-.14-.269.26-.556.5-.863.718l-.224.159.014.274c.008.169.014.335.014.504 0 5.203-3.959 11.168-11.17 11.168-1.518 0-2.96-.299-4.274-.845a8.734 8.734 0 004.357-1.794l1.104-.863-1.401-.03z" fill="#AFB1B8" stroke="#000"/></g><defs><clipPath id="clip0"><path fill="#fff" d="M0 0h20v20H0z"/></clipPath></defs></svg>